# xmcd
#
# Track frame offsets: 
#        150
#        20875
#        43312
#        60890
#        81215
#        99887
#        119472
#        139317
#        158725
#        180332
#
# Disc length: 2706 seconds
#
# Revision: 9
# Processed by: cddbd v1.5.2PL0 Copyright (c) Steve Scherf et al.
# Submitted via: ExactAudioCopy v1.0b3
#
DISCID=7d0a900a
DTITLE=劉若英 - 年華
DYEAR=2001
DGENRE=Pop
TTITLE0=成全
TTITLE1=遺忘的城市
TTITLE2=我曾愛過一個男孩
TTITLE3=年華
TTITLE4=對面男生的房間
TTITLE5=點亮橘子樹
TTITLE6=忘了
TTITLE7=秘密
TTITLE8=傍晚
TTITLE9=勇敢
EXTD=YEAR: 2001
EXTT0=Step Aside
EXTT1=Abandoned City
EXTT2=The One I've Loved
EXTT3=Those Were The Days
EXTT4=Dui Mian Nan Sheng De Fang Qian
EXTT5=A Lover's Discourse
EXTT6=Insensibility
EXTT7=Secret
EXTT8=At Dusk
EXTT9=Daring
PLAYORDER=
